<svg xmlns="http://www.w3.org/2000/svg" viewBox="0 0 509.5 43"><defs><style>.cls-1{fill:#25282a;opacity:0.1;isolation:isolate;}</style></defs><title>horizontal</title><g id="Capa_2"><g id="Capa_1-2"><path class="cls-1" d="M345.8.1a89.71,89.71,0,0,1-10.1,30.6v.1a1.23,1.23,0,0,1-1,.5.9.9,0,0,1-.5-.1h-.1L310.6,18.7A73.27,73.27,0,0,0,321.2.1ZM320.1,32.6a81.1,81.1,0,0,1-7,10.3H277.8a75.37,75.37,0,0,0,28.7-19.4L319.6,31A1.22,1.22,0,0,1,320.1,32.6ZM223.5,43H173.3a.52.52,0,0,1,.2-.4h0l18.8-21.5A77.48,77.48,0,0,0,223.5,43ZM188.7,16.2l-12,12.5a2.19,2.19,0,0,1-.5.3,1.09,1.09,0,0,1-1.2-.2A90.42,90.42,0,0,1,154.3.1h25.5A81.48,81.48,0,0,0,188.7,16.2ZM304.2.1a62.86,62.86,0,0,1-3.2,7,.65.65,0,0,1-.9.2L286.6.1ZM212.3.1l-5.5,5.8c-.1.1-.2.2-.3.2a.88.88,0,0,1-.7-.1A42.94,42.94,0,0,1,200.4.1Zm3.8,1.2h0L205,14a.75.75,0,0,0,0,.9h0a52.9,52.9,0,0,0,20.3,11,52.63,52.63,0,0,0,23,1.5c.2,0,.4-.2.5-.5v-.3l-1.4-9.5A45,45,0,0,1,216.1,1.3ZM254.8,34h.2a53.47,53.47,0,0,0,21.3-8.9A53.37,53.37,0,0,0,291.8,8.2a.61.61,0,0,0-.3-.9h0l-7.8-4.5a45.32,45.32,0,0,1-32.6,14.5h0l3,16.2A.75.75,0,0,0,254.8,34ZM146.7,43H105.4A148.41,148.41,0,0,1,88.9,13Q86.35,6.55,84.4.1h43.5A122,122,0,0,0,146.7,43ZM409.8.1c0,2.4-.1,4.7-.3,7a149.89,149.89,0,0,1-6.7,35.8H354.5A122,122,0,0,0,373.3,0h36.5ZM54.4,43H0V.1H43.9A203.71,203.71,0,0,0,54.4,43ZM509.5.1V43H446.8A208.66,208.66,0,0,0,457.4.1Z"/></g></g></svg>